<svg width="24" height="24" viewBox="0 0 24 24" fill="none" xmlns="http://www.w3.org/2000/svg">
<path d="M20 10.6667C20 16.889 12 22.2223 12 22.2223C12 22.2223 4 16.889 4 10.6667C4 8.54502 4.84285 6.51018 6.34315 5.00989C7.84344 3.5096 9.87827 2.66675 12 2.66675C14.1217 2.66675 16.1566 3.5096 17.6569 5.00989C19.1571 6.51018 20 8.54502 20 10.6667Z" stroke="#2B2D3A" stroke-linecap="round" stroke-linejoin="round"/>
<path d="M11.9999 13.3333C13.4727 13.3333 14.6666 12.1394 14.6666 10.6667C14.6666 9.19391 13.4727 8 11.9999 8C10.5272 8 9.33325 9.19391 9.33325 10.6667C9.33325 12.1394 10.5272 13.3333 11.9999 13.3333Z" stroke="#2B2D3A" stroke-linecap="round" stroke-linejoin="round"/>
</svg>
