<svg width="24" height="16" viewBox="0 0 24 16" fill="none" xmlns="http://www.w3.org/2000/svg">
<path d="M16.122 0.122121C14.6684 0.116816 13.2361 0.525304 12 1.28923C10.7639 0.525304 9.33156 0.116816 7.87798 0.122121C3.53316 0.122121 0 3.65528 0 8.0001C0 12.3449 3.53316 15.8781 7.87798 15.8781C9.33156 15.8834 10.7639 15.4749 12 14.711C13.2361 15.4749 14.6684 15.8834 16.122 15.8781C20.4668 15.8781 24 12.3449 24 8.0001C24 3.65528 20.4668 0.122121 16.122 0.122121ZM7.87798 14.8224C4.11141 14.8224 1.0557 11.7667 1.0557 8.00541C1.0557 4.24414 4.11141 1.18313 7.87798 1.18313C8.98674 1.18313 10.0796 1.44838 11.0557 1.96828C7.72414 4.76403 7.28912 9.72955 10.0849 13.0611C10.382 13.4112 10.7056 13.7349 11.0557 14.0319C10.0796 14.5518 8.98674 14.8224 7.87798 14.8224ZM12 13.4272C9.00265 11.1513 8.41379 6.87544 10.6897 3.87809C11.0663 3.38472 11.5066 2.9444 12 2.56774C14.9973 4.84361 15.5862 9.11947 13.3103 12.1168C12.9337 12.6155 12.4934 13.0558 12 13.4272ZM16.122 14.8171C15.0133 14.8171 13.9204 14.5518 12.9443 14.0319C16.2759 11.2362 16.7109 6.27066 13.9151 2.9391C13.618 2.58896 13.2944 2.26536 12.9443 1.96828C13.9257 1.44838 15.0133 1.17782 16.122 1.18313C19.8886 1.18313 22.939 4.23883 22.939 8.00541C22.939 11.772 19.8886 14.8224 16.122 14.8171Z" fill="#2B2D3A"/>
</svg>
